<?xml version="1.0" standalone="no"?>
<!DOCTYPE svg PUBLIC "-//W3C//DTD SVG 20010904//EN"
 "http://www.w3.org/TR/2001/REC-SVG-20010904/DTD/svg10.dtd">
<svg version="1.0" xmlns="http://www.w3.org/2000/svg"
 width="221.000000pt" height="228.000000pt" viewBox="0 0 221.000000 228.000000"
 preserveAspectRatio="xMidYMid meet">

<g transform="translate(0.000000,228.000000) scale(0.100000,-0.100000)"
fill="#000000" stroke="none">
<path d="M1000 2270 c-168 -21 -367 -99 -514 -200 -151 -104 -320 -309 -387
-469 -77 -184 -110 -389 -91 -566 32 -295 139 -514 348 -716 507 -488 1339
-398 1731 186 23 33 59 96 81 141 l41 81 -431 209 c-237 115 -431 213 -432
217 0 5 188 101 418 213 231 112 422 206 424 209 9 9 -41 107 -102 199 -128
197 -347 366 -570 441 -159 53 -356 74 -516 55z m290 -84 c249 -38 453 -145
625 -327 61 -65 182 -237 172 -245 -1 -1 -211 -103 -467 -228 -256 -124 -464
-229 -462 -234 2 -4 213 -109 470 -234 300 -146 466 -231 464 -240 -2 -7 -24
-49 -50 -93 -55 -93 -216 -262 -307 -320 -326 -212 -712 -239 -1051 -75 -226
110 -392 276 -499 501 -186 394 -114 845 186 1173 68 74 193 168 290 217 205
103 412 137 629 105z"/>
<path d="M1053 1854 c-93 -46 -97 -191 -7 -250 16 -11 46 -18 74 -18 82 0 140
59 140 143 0 107 -109 173 -207 125z"/>
</g>
</svg>
